# File created by Blade
# Date/Time:  Tue Jan 27 19:05:02 2015
# Frame Rate: 120.000 fps
#------------------------------------------------------
:FULLY-SPECIFIED
:DEGREES
1968
root -2.165368 31.696137 -5.013628 7.043911 -16.227682 -5.608173
Spine -1.158822 -2.346185 -0.900053
Head 27.932023 -1.779985 3.473150
LeftShoulder -18.848174 16.812588 13.659827
LeftArm 12.740947 -47.899026 -77.966995
LeftForeArm -1.652094 -0.000000 98.693575
LeftHand -13.222443 -0.000000 23.764934
LeftHandThumb1 -26.253704 0.000000 33.147579
RightShoulder -13.131299 -2.089838 -9.086432
RightArm 7.645699 -29.349652 82.553375
RightForeArm -25.225781 -0.000000 22.782010
RightHand -14.602587 -0.000000 9.251819
RightHandThumb1 -24.326973 -0.000000 -32.862282
LeftUpLeg -8.703154 2.610309 -5.698528
LeftLeg 16.127445 -0.000000 -0.000000
LeftFoot -27.093753 29.256335 -14.130587
LeftToeBase 10.183864 -0.000000 -0.000000
RightUpLeg -20.352532 -30.529698 3.121011
RightLeg 28.248986 -0.000000 -0.000000
RightFoot -19.318772 -22.707560 12.767110
RightToeBase -2.116160 -0.000000 0.000000
1969
root -2.164707 31.692185 -5.006327 6.970520 -16.200392 -5.608006
Spine -1.096605 -2.365271 -0.883826
Head 27.898688 -1.738669 3.474221
LeftShoulder -18.825004 16.807905 13.666669
LeftArm 12.765258 -47.853872 -77.984334
LeftForeArm -1.939580 0.000000 98.680218
LeftHand -12.975529 -0.000000 23.581578
LeftHandThumb1 -26.253704 0.000000 33.147579
RightShoulder -13.155008 -2.118299 -9.069188
RightArm 7.678943 -29.409123 82.532710
RightForeArm -25.185338 0.000000 22.641793
RightHand -14.599827 -0.000000 9.302032
RightHandThumb1 -24.326973 -0.000000 -32.862282
LeftUpLeg -8.619462 2.586978 -5.696129
LeftLeg 16.138129 -0.000000 -0.000000
LeftFoot -27.132558 29.251589 -14.111491
LeftToeBase 10.142524 -0.000000 -0.000000
RightUpLeg -20.510013 -30.201817 2.912204
RightLeg 30.299004 -0.000000 -0.000000
RightFoot -19.240108 -21.811499 12.433956
RightToeBase -2.346398 -0.000000 0.000000
1970
root -2.161081 31.688885 -5.002951 6.934006 -16.199434 -5.603322
Spine -1.071555 -2.377713 -0.867959
Head 27.875126 -1.676331 3.483076
LeftShoulder -18.818584 16.784785 13.662679
LeftArm 12.769612 -47.759056 -77.986917
LeftForeArm -1.922661 -0.000000 98.695826
LeftHand -12.922413 -0.000000 23.661804
LeftHandThumb1 -26.253704 0.000000 33.147579
RightShoulder -13.160215 -2.057426 -9.069414
RightArm 7.636874 -29.481787 82.550877
RightForeArm -25.148481 -0.000000 22.449813
RightHand -14.585637 -0.000000 9.291411
RightHandThumb1 -24.326973 -0.000000 -32.862282
LeftUpLeg -8.578973 2.599342 -5.705587
LeftLeg 16.137251 -0.000000 -0.000000
LeftFoot -27.169840 29.214421 -14.137365
LeftToeBase 10.211499 -0.000000 -0.000000
RightUpLeg -20.752490 -29.798207 2.712498
RightLeg 32.441367 -0.000000 -0.000000
RightFoot -19.140839 -20.954428 12.305162
RightToeBase -2.641539 -0.000000 0.000000
1971
root -2.156739 31.683835 -4.994174 6.856024 -16.216644 -5.571327
Spine -1.023921 -2.390124 -0.876288
Head 27.862157 -1.589305 3.484927
LeftShoulder -18.821291 16.755739 13.668240
LeftArm 12.734651 -47.679284 -77.983436
LeftForeArm -1.953842 0.000000 98.720278
LeftHand -12.860463 -0.000000 23.546413
LeftHandThumb1 -26.253704 0.000000 33.147579
RightShoulder -13.144960 -2.028440 -9.074503
RightArm 7.623935 -29.539863 82.567147
RightForeArm -25.097268 -0.000000 22.251751
RightHand -14.584119 0.000000 9.247619
RightHandThumb1 -24.326973 -0.000000 -32.862282
LeftUpLeg -8.488002 2.639393 -5.740710
LeftLeg 16.127558 -0.000000 -0.000000
LeftFoot -27.181508 29.167179 -14.110715
LeftToeBase 10.207578 -0.000000 -0.000000
RightUpLeg -20.987663 -29.496967 2.516270
RightLeg 34.682929 -0.000000 -0.000000
RightFoot -18.984884 -20.244627 12.060212
RightToeBase -2.665326 -0.000000 0.000000
1972
root -2.153768 31.680319 -4.987688 6.793381 -16.243751 -5.543364
Spine -0.988204 -2.378083 -0.895242
Head 27.863112 -1.534138 3.500985
LeftShoulder -18.823296 16.754540 13.681718
LeftArm 12.760370 -47.612059 -78.059516
LeftForeArm -1.913824 0.000000 98.756081
LeftHand -12.794233 -0.000000 23.464586
LeftHandThumb1 -26.253704 0.000000 33.147579
RightShoulder -13.146726 -2.038115 -9.061660
RightArm 7.641907 -29.588781 82.565056
RightForeArm -25.086347 -0.000000 22.067742
RightHand -14.581800 -0.000000 9.319553
RightHandThumb1 -24.326973 -0.000000 -32.862282
LeftUpLeg -8.405700 2.713292 -5.778640
LeftLeg 16.091297 -0.000000 -0.000000
LeftFoot -27.215523 29.058845 -14.116822
LeftToeBase 10.745120 -0.000000 -0.000000
RightUpLeg -21.255319 -29.179164 2.335293
RightLeg 37.010399 -0.000000 -0.000000
RightFoot -18.840859 -19.612740 11.880395
RightToeBase -2.887618 -0.000000 0.000000
1973
root -2.150315 31.675757 -4.978043 6.709507 -16.273786 -5.498881
Spine -0.945119 -2.370791 -0.925288
Head 27.878775 -1.480867 3.508668
LeftShoulder -18.815776 16.745610 13.671473
LeftArm 12.747921 -47.556023 -78.064739
LeftForeArm -1.852366 -0.000000 98.812231
LeftHand -12.875598 -0.000000 23.517794
LeftHandThumb1 -26.253704 0.000000 33.147579
RightShoulder -13.148150 -2.004842 -9.067123
RightArm 7.610957 -29.639313 82.599761
RightForeArm -25.038223 -0.000000 21.849378
RightHand -14.578889 -0.000000 9.340550
RightHandThumb1 -24.326973 -0.000000 -32.862282
LeftUpLeg -8.295991 2.741795 -5.833595
LeftLeg 16.049300 -0.000000 -0.000000
LeftFoot -27.255401 29.154085 -14.136027
LeftToeBase 10.307038 -0.000000 -0.000000
RightUpLeg -21.481432 -28.871108 2.127296
RightLeg 39.396898 -0.000000 -0.000000
RightFoot -18.735886 -18.928699 11.833138
RightToeBase -2.410759 -0.000000 0.000000
1974
root -2.145466 31.671761 -4.967245 6.623360 -16.305131 -5.452100
Spine -0.905598 -2.356578 -0.955898
Head 27.903154 -1.430620 3.539547
LeftShoulder -18.831338 16.745246 13.665088
LeftArm 12.784529 -47.486901 -78.146952
LeftForeArm -1.776977 0.000000 98.862307
LeftHand -12.868912 -0.000000 23.494123
LeftHandThumb1 -26.253704 0.000000 33.147579
RightShoulder -13.165944 -1.992475 -9.060982
RightArm 7.617123 -29.733937 82.592995
RightForeArm -24.911104 -0.000000 21.613281
RightHand -14.539736 -0.000000 9.349502
RightHandThumb1 -24.326973 -0.000000 -32.862282
LeftUpLeg -8.204448 2.784080 -5.883026
LeftLeg 16.074088 -0.000000 -0.000000
LeftFoot -27.225735 29.107649 -14.051493
LeftToeBase 10.202459 -0.000000 -0.000000
RightUpLeg -21.715492 -28.595566 1.918071
RightLeg 41.852733 -0.000000 -0.000000
RightFoot -18.588524 -18.333337 11.620178
RightToeBase -1.805913 -0.000000 0.000000
1975
root -2.142759 31.668222 -4.956024 6.547273 -16.330040 -5.431615
Spine -0.874726 -2.345130 -0.957789
Head 27.946541 -1.401769 3.552929
LeftShoulder -18.846292 16.760668 13.642798
LeftArm 12.837923 -47.432975 -78.238586
LeftForeArm -1.715506 -0.000000 98.922446
LeftHand -12.870133 -0.000000 23.505059
LeftHandThumb1 -26.253704 0.000000 33.147579
RightShoulder -13.174422 -2.002559 -9.049559
RightArm 7.629092 -29.790972 82.588252
RightForeArm -24.880126 -0.000000 21.390163
RightHand -14.576307 -0.000000 9.369078
RightHandThumb1 -24.326973 -0.000000 -32.862282
LeftUpLeg -8.113006 2.829138 -5.905856
LeftLeg 16.078191 -0.000000 -0.000000
LeftFoot -27.244934 29.056491 -14.051724
LeftToeBase 10.211268 -0.000000 -0.000000
RightUpLeg -21.990572 -28.394510 1.782628
RightLeg 44.394716 -0.000000 -0.000000
RightFoot -18.333794 -18.025977 11.396115
RightToeBase -1.855210 -0.000000 0.000000
1976
root -2.139719 31.664795 -4.942867 6.451640 -16.336934 -5.405593
Spine -0.825452 -2.358994 -0.953151
Head 27.990510 -1.358160 3.536600
LeftShoulder -18.852148 16.753764 13.621242
LeftArm 12.856243 -47.434860 -78.338713
LeftForeArm -1.643348 -0.000000 98.985151
LeftHand -12.861759 0.000000 23.397685
LeftHandThumb1 -26.253704 0.000000 33.147579
RightShoulder -13.157474 -2.007843 -9.049004
RightArm 7.606538 -29.821189 82.597831
RightForeArm -24.884026 -0.000000 21.198529
RightHand -14.554759 -0.000000 9.460346
RightHandThumb1 -24.326973 -0.000000 -32.862282
LeftUpLeg -7.998945 2.817415 -5.930418
LeftLeg 16.074098 -0.000000 -0.000000
LeftFoot -27.243473 29.123309 -13.993617
LeftToeBase 10.018147 -0.000000 -0.000000
RightUpLeg -22.223677 -28.261973 1.647330
RightLeg 46.983374 -0.000000 -0.000000
RightFoot -18.096803 -17.715989 11.295702
RightToeBase -2.142251 -0.000000 0.000000
1977
root -2.137332 31.661087 -4.928492 6.353997 -16.337419 -5.384127
Spine -0.780279 -2.382057 -0.946186
Head 28.044030 -1.318343 3.539615
LeftShoulder -18.893876 16.762316 13.574151
LeftArm 12.880855 -47.368650 -78.373797
LeftForeArm -1.591277 0.000000 99.048385
LeftHand -12.888415 -0.000000 23.449396
LeftHandThumb1 -26.253704 0.000000 33.147579
RightShoulder -13.146530 -2.025195 -9.050749
RightArm 7.601148 -29.898227 82.601068
RightForeArm -24.820012 -0.000000 20.983438
RightHand -14.486348 -0.000000 9.485861
RightHandThumb1 -24.326973 -0.000000 -32.862282
LeftUpLeg -7.889783 2.806875 -5.958528
LeftLeg 16.098568 -0.000000 -0.000000
LeftFoot -27.290492 29.131476 -14.039328
LeftToeBase 10.057557 -0.000000 -0.000000
RightUpLeg -22.454343 -28.181794 1.523973
RightLeg 49.647512 -0.000000 -0.000000
RightFoot -17.919808 -17.473202 11.317655
RightToeBase -1.818111 -0.000000 0.000000
1978
root -2.133929 31.657813 -4.909424 6.241089 -16.303017 -5.361562
Spine -0.736064 -2.427090 -0.917282
Head 28.126633 -1.302847 3.490166
LeftShoulder -18.911374 16.777067 13.500974
LeftArm 12.907128 -47.340976 -78.413193
LeftForeArm -1.522593 -0.000000 99.109794
LeftHand -12.903995 -0.000000 23.459537
LeftHandThumb1 -26.253704 0.000000 33.147579
RightShoulder -13.129405 -2.056373 -9.065565
RightArm 7.560079 -29.888645 82.620145
RightForeArm -24.833136 -0.000000 20.825046
RightHand -14.522204 -0.000000 9.595178
RightHandThumb1 -24.326973 -0.000000 -32.862282
LeftUpLeg -7.750875 2.701093 -5.983837
LeftLeg 16.101127 -0.000000 -0.000000
LeftFoot -27.344297 29.180530 -14.098858
LeftToeBase 10.081905 -0.000000 -0.000000
RightUpLeg -22.650797 -28.185532 1.401333
RightLeg 52.341818 -0.000000 -0.000000
RightFoot -17.670688 -17.330038 11.368383
RightToeBase -2.157794 -0.000000 0.000000
1979
root -2.131444 31.655030 -4.889769 6.131740 -16.255323 -5.330361
Spine -0.706095 -2.472385 -0.906038
Head 28.224057 -1.302019 3.472014
LeftShoulder -18.925536 16.811931 13.438206
LeftArm 12.976773 -47.311590 -78.492336
LeftForeArm -1.408801 -0.000000 99.168140
LeftHand -12.918387 -0.000000 23.499823
LeftHandThumb1 -26.253704 0.000000 33.147579
RightShoulder -13.135692 -2.149529 -9.052077
RightArm 7.586787 -29.915692 82.590400
RightForeArm -24.786969 -0.000000 20.668327
RightHand -14.545604 -0.000000 9.620278
RightHandThumb1 -24.326973 -0.000000 -32.862282
LeftUpLeg -7.614968 2.580063 -6.019107
LeftLeg 16.097458 -0.000000 -0.000000
LeftFoot -27.405433 29.240679 -14.179411
LeftToeBase 10.113027 -0.000000 -0.000000
RightUpLeg -22.820380 -28.207749 1.276512
RightLeg 55.037513 -0.000000 -0.000000
RightFoot -17.494356 -17.142105 11.412694
RightToeBase -1.315252 -0.000000 0.000000
1980
root -2.126987 31.651370 -4.868084 5.992845 -16.196615 -5.287294
Spine -0.645281 -2.545444 -0.893670
Head 28.308204 -1.282647 3.418593
LeftShoulder -18.960698 16.840826 13.359003
LeftArm 13.024066 -47.284665 -78.549999
LeftForeArm -1.338772 -0.000000 99.226214
LeftHand -12.927232 0.000000 23.475856
LeftHandThumb1 -26.253704 0.000000 33.147579
RightShoulder -13.143032 -2.175934 -9.067224
RightArm 7.574722 -29.989947 82.591695
RightForeArm -24.763649 -0.000000 20.450959
RightHand -14.441605 -0.000000 9.723944
RightHandThumb1 -24.326973 -0.000000 -32.862282
LeftUpLeg -7.446389 2.407258 -6.057493
LeftLeg 16.105312 -0.000000 -0.000000
LeftFoot -27.477017 29.268302 -14.282314
LeftToeBase 10.083943 -0.000000 -0.000000
RightUpLeg -22.946856 -28.314757 1.138426
RightLeg 57.777533 -0.000000 -0.000000
RightFoot -17.315094 -16.934629 11.494885
RightToeBase -0.255929 -0.000000 0.000000
